<?xml version="1.0" encoding="UTF-8" standalone="no"?>
<svg xmlns="http://www.w3.org/2000/svg" version="1.2" baseProfile="tiny" viewBox="0.00 0.00 1024.00 1024.00">
<g stroke-width="2.00" fill="none" stroke-linecap="butt">
<path stroke="#3e6782" vector-effect="non-scaling-stroke" d="
  M 640.61 303.78
  Q 639.50 302.93 638.47 300.41
  Q 637.39 297.77 636.85 296.72
  C 631.48 286.31 627.59 276.89 621.51 269.25
  C 614.32 260.23 604.14 258.22 593.00 259.19
  A 0.72 0.71 81.4 0 1 592.24 258.62
  L 584.66 220.79"
/>
<path stroke="#3e6782" vector-effect="non-scaling-stroke" d="
  M 606.15 650.42
  Q 594.28 651.50 582.27 650.75"
/>
<path stroke="#3e6782" vector-effect="non-scaling-stroke" d="
  M 394.95 621.40
  L 371.86 621.37"
/>
<path stroke="#3e6782" vector-effect="non-scaling-stroke" d="
  M 346.47 399.59
  Q 346.62 400.30 347.09 398.57
  A 1.12 1.10 88.6 0 1 347.78 397.83
  L 375.76 387.90
  A 0.54 0.54 0.0 0 0 376.01 387.07
  Q 374.01 384.38 372.24 381.29
  Q 360.24 360.40 344.27 329.25
  Q 338.28 317.57 335.62 308.17"
/>
<path stroke="#3e6782" vector-effect="non-scaling-stroke" d="
  M 533.67 701.97
  Q 534.04 701.34 533.68 700.53"
/>
<path stroke="#3e6782" vector-effect="non-scaling-stroke" d="
  M 622.87 648.97
  Q 623.20 648.37 622.81 647.70"
/>
</g>
<path fill="#202e32" d="
  M 0.58 0.90
  Q 0.62 0.66 0.76 0.64
  A 0.09 0.09 0.0 0 1 0.85 0.78
  Q 0.83 0.81 0.64 0.94
  A 0.04 0.04 0.0 0 1 0.58 0.90
  Z"
/>
<path fill="#5ba0d2" d="
  M 640.61 303.78
  Q 639.50 302.93 638.47 300.41
  Q 637.39 297.77 636.85 296.72
  C 631.48 286.31 627.59 276.89 621.51 269.25
  C 614.32 260.23 604.14 258.22 593.00 259.19
  A 0.72 0.71 81.4 0 1 592.24 258.62
  L 584.66 220.79
  Q 585.21 221.12 585.50 220.99
  Q 591.00 218.59 594.54 217.01
  Q 616.80 207.05 628.58 186.07
  Q 630.55 182.57 638.38 167.64
  Q 643.49 157.90 653.82 147.07
  Q 678.95 120.69 716.63 116.14
  Q 724.12 115.23 736.00 116.08
  Q 766.84 118.30 790.29 136.71
  Q 793.44 139.19 797.27 143.46
  C 800.38 146.93 801.37 150.88 797.65 154.16
  Q 795.09 156.42 791.62 157.62
  Q 757.81 169.32 724.33 180.30
  C 719.06 182.03 717.60 184.93 716.03 190.32
  Q 714.17 196.72 709.46 213.76
  C 708.49 217.26 706.89 221.44 707.18 224.99
  Q 707.42 228.04 710.59 231.24
  Q 719.50 240.23 728.86 247.62
  Q 735.79 253.10 744.00 253.18
  Q 748.84 253.22 759.80 249.17
  Q 765.72 246.98 817.60 229.26
  A 3.24 3.23 33.8 0 1 818.57 229.07
  C 826.21 228.64 829.19 234.11 827.73 240.91
  C 825.54 251.13 821.06 261.15 815.72 270.48
  Q 800.14 297.71 771.97 311.93
  Q 767.15 314.36 758.10 317.61
  C 736.00 325.54 713.27 324.80 691.81 315.19
  Q 680.36 310.06 668.54 306.44
  Q 655.75 302.53 640.61 303.78
  Z"
/>
<path fill="#202e32" d="
  M 584.66 220.79
  L 592.24 258.62
  A 0.72 0.71 81.4 0 0 593.00 259.19
  C 604.14 258.22 614.32 260.23 621.51 269.25
  C 627.59 276.89 631.48 286.31 636.85 296.72
  Q 637.39 297.77 638.47 300.41
  Q 639.50 302.93 640.61 303.78
  Q 648.04 321.77 652.09 337.40
  Q 653.99 344.71 655.56 356.23
  Q 658.63 378.73 647.12 398.87
  Q 639.64 411.96 633.69 420.94
  Q 614.82 449.46 592.76 474.27
  A 3.32 3.16 -12.7 0 0 592.28 474.99
  Q 590.88 477.88 591.19 481.52
  Q 591.54 485.69 591.86 491.57
  C 592.17 497.22 592.94 501.50 592.97 506.95
  Q 592.97 507.64 593.40 513.09
  Q 595.05 534.19 596.48 551.83
  Q 597.97 570.25 599.66 588.64
  Q 603.84 633.97 604.51 638.92
  Q 604.64 639.81 604.78 640.72
  Q 604.93 641.68 604.92 642.54
  Q 604.85 646.43 606.15 650.42
  Q 594.28 651.50 582.27 650.75
  L 568.04 491.29
  A 0.57 0.57 0.0 0 0 567.32 490.79
  Q 552.19 494.97 536.32 493.64
  C 534.47 493.48 532.60 492.87 530.38 492.44
  A 0.34 0.33 37.9 0 1 530.30 491.81
  Q 531.68 491.16 533.36 490.92
  A 3.52 3.15 25.5 0 0 534.25 490.66
  Q 551.65 483.06 564.39 471.11
  Q 582.60 454.02 599.01 431.25
  C 610.77 414.92 620.57 400.91 630.21 382.91
  Q 636.61 370.97 634.20 357.78
  Q 632.24 347.02 630.19 340.30
  Q 622.46 314.99 608.35 287.70
  Q 606.11 283.35 602.75 281.75
  A 3.13 3.08 -32.9 0 0 601.29 281.45
  Q 592.52 281.85 585.46 282.81
  Q 574.19 284.35 571.08 284.60
  Q 563.73 285.17 552.53 286.64
  Q 551.67 286.75 551.51 286.76
  Q 534.19 288.39 525.20 289.08
  C 519.86 289.49 514.96 291.71 515.48 298.01
  Q 515.85 302.57 517.22 304.87
  Q 525.23 318.34 540.22 323.84
  C 550.93 327.77 562.14 329.20 573.28 329.41
  Q 575.54 329.45 577.45 328.98
  A 0.86 0.86 0.0 0 1 578.51 329.89
  Q 577.43 341.67 582.24 352.02
  Q 584.39 356.66 587.03 361.40
  A 0.59 0.59 0.0 0 1 586.49 362.28
  Q 583.46 362.14 582.75 361.99
  Q 576.89 360.78 565.02 359.30
  C 546.65 357.00 526.69 364.53 511.52 375.33
  Q 483.21 395.48 468.68 426.43
  Q 466.52 431.02 463.93 436.76
  A 1.22 0.29 -58.3 0 0 463.88 436.91
  L 462.91 440.90
  A 0.36 0.35 19.6 0 1 462.41 441.13
  Q 462.09 440.98 462.08 440.68
  C 461.63 431.01 461.19 419.97 463.03 410.19
  Q 464.87 400.43 468.04 392.90
  A 0.48 0.47 11.4 0 0 467.60 392.24
  Q 464.13 392.26 460.43 391.59
  Q 447.05 389.14 436.12 388.66
  Q 426.90 388.25 418.97 392.72
  Q 418.49 392.98 410.29 397.54
  Q 407.96 398.83 401.30 399.67
  C 398.47 400.03 395.08 399.18 393.00 399.06
  A 2.44 2.28 34.7 0 0 391.97 399.21
  L 370.66 407.37
  A 1.18 1.17 -16.5 0 0 369.93 408.71
  Q 372.45 420.53 375.87 432.39
  C 380.07 446.94 386.62 460.11 397.42 469.61
  C 412.93 483.25 430.91 490.48 451.48 493.80
  A 0.34 0.34 0.0 0 1 451.57 494.44
  Q 446.79 496.72 440.44 498.88
  Q 425.39 503.99 410.30 501.82
  Q 408.70 501.60 406.77 501.01
  A 0.54 0.54 0.0 0 0 406.08 501.48
  L 394.95 621.40
  L 371.86 621.37
  L 384.07 489.29
  A 1.90 1.90 0.0 0 0 383.41 487.67
  C 366.36 473.02 357.97 453.97 352.08 432.01
  Q 347.91 416.47 346.47 399.59
  Q 346.62 400.30 347.09 398.57
  A 1.12 1.10 88.6 0 1 347.78 397.83
  L 375.76 387.90
  A 0.54 0.54 0.0 0 0 376.01 387.07
  Q 374.01 384.38 372.24 381.29
  Q 360.24 360.40 344.27 329.25
  Q 338.28 317.57 335.62 308.17
  C 332.48 290.29 342.75 275.56 358.33 268.58
  C 365.65 265.30 373.80 262.94 381.53 264.51
  A 1.02 1.01 -82.6 0 0 382.74 263.57
  Q 382.92 260.62 384.21 257.37
  Q 388.71 245.99 400.22 239.80
  Q 414.71 232.01 430.56 231.15
  Q 435.27 230.89 439.00 232.23
  A 1.00 1.00 0.0 0 0 440.26 231.68
  Q 446.23 218.07 460.20 212.41
  Q 471.00 208.03 484.06 206.56
  Q 492.45 205.61 500.79 208.47
  A 2.36 2.04 -15.5 0 1 501.15 208.64
  Q 503.51 210.14 504.80 207.76
  Q 509.57 198.88 518.83 195.09
  Q 534.65 188.61 551.25 186.54
  C 564.61 184.88 575.37 194.28 579.97 206.03
  Q 582.45 212.38 584.66 220.79
  Z
  M 570.21 259.92
  Q 570.32 258.91 569.76 256.59
  Q 564.15 233.25 560.38 219.71
  C 558.69 213.63 554.45 208.90 547.52 209.95
  Q 537.20 211.52 527.95 215.92
  Q 522.51 218.51 521.42 222.86
  Q 520.67 225.86 522.51 232.36
  Q 527.61 250.45 532.04 264.44
  A 1.15 1.15 0.0 0 0 533.28 265.23
  L 569.55 260.59
  A 0.77 0.75 -89.9 0 0 570.21 259.92
  Z
  M 515.18 335.27
  Q 498.02 323.83 493.44 303.56
  Q 492.15 297.87 493.13 289.25
  Q 494.59 276.36 508.15 269.33
  A 0.89 0.89 0.0 0 0 508.59 268.29
  Q 505.57 258.41 499.43 238.13
  Q 498.08 233.68 494.29 231.00
  C 488.01 226.54 475.09 229.72 468.82 232.71
  Q 464.17 234.93 461.42 239.96
  A 2.91 2.84 -28.4 0 0 461.09 241.02
  C 460.34 247.35 462.05 251.77 464.41 258.58
  Q 479.01 300.76 487.22 326.00
  C 488.91 331.20 490.44 336.16 495.39 337.79
  Q 504.97 340.95 515.13 335.92
  A 0.38 0.37 -41.0 0 0 515.18 335.27
  Z
  M 444.87 353.82
  C 452.21 356.01 461.77 353.99 465.94 346.77
  C 468.13 342.97 467.08 337.36 465.66 333.32
  Q 456.50 307.14 447.88 282.59
  Q 442.35 266.86 440.57 262.90
  C 437.90 256.96 434.29 252.93 427.25 253.64
  Q 422.41 254.13 418.08 255.72
  C 410.29 258.58 404.06 261.97 404.69 271.14
  C 404.91 274.22 407.22 279.32 408.15 281.32
  Q 419.12 304.89 435.24 341.72
  Q 437.75 347.46 438.69 348.99
  Q 440.91 352.63 444.87 353.82
  Z
  M 405.52 371.75
  C 414.79 368.01 416.76 359.54 413.75 350.75
  Q 412.15 346.09 410.87 343.40
  Q 400.23 321.10 387.79 294.47
  C 386.53 291.79 384.44 287.58 381.16 287.08
  C 372.59 285.78 362.21 289.22 358.57 297.55
  C 356.21 302.94 358.45 307.83 361.00 313.01
  Q 374.57 340.67 389.14 367.09
  C 392.68 373.52 399.12 374.33 405.52 371.75
  Z"
/>
<path fill="#5ba0d2" d="
  M 335.62 308.17
  Q 338.28 317.57 344.27 329.25
  Q 360.24 360.40 372.24 381.29
  Q 374.01 384.38 376.01 387.07
  A 0.54 0.54 0.0 0 1 375.76 387.90
  L 347.78 397.83
  A 1.12 1.10 88.6 0 0 347.09 398.57
  Q 346.62 400.30 346.47 399.59
  Q 341.35 400.32 331.75 404.03
  Q 310.65 412.18 300.37 432.34
  C 292.83 447.13 284.83 459.51 271.63 469.85
  Q 254.26 483.45 233.23 487.43
  C 206.32 492.52 176.83 486.60 155.32 469.43
  C 151.25 466.19 147.31 462.49 145.33 457.73
  A 2.19 2.17 36.2 0 1 145.16 456.67
  C 145.57 452.01 148.00 450.52 152.55 449.16
  Q 186.15 439.04 188.57 438.33
  Q 194.29 436.66 202.18 433.91
  C 215.28 429.35 223.11 417.32 224.07 403.83
  Q 224.77 393.97 220.89 386.17
  C 213.18 370.68 198.42 361.58 180.99 367.97
  Q 164.21 374.11 159.96 375.44
  Q 145.67 379.95 136.47 383.40
  Q 130.87 385.50 127.92 384.88
  Q 123.38 383.91 122.45 378.68
  A 4.50 4.39 -48.2 0 1 122.40 377.53
  C 122.56 375.63 123.08 372.10 123.75 369.89
  Q 130.54 347.42 146.78 330.00
  Q 163.26 312.31 186.87 305.13
  Q 204.41 299.80 222.25 302.08
  Q 239.89 304.35 256.40 311.61
  Q 265.09 315.43 271.00 317.22
  Q 285.37 321.57 299.22 319.59
  Q 305.03 318.76 313.83 316.12
  Q 321.44 313.83 335.62 308.17
  Z"
/>
<path fill="#5ba0d2" d="
  M 371.86 621.37
  L 394.95 621.40
  Q 424.30 620.66 453.00 620.56
  C 459.63 620.54 467.69 620.47 474.07 622.22
  Q 491.78 627.06 502.75 640.95
  Q 513.47 654.52 513.79 672.51
  Q 513.90 678.67 513.48 709.08
  C 513.41 713.62 513.91 718.49 517.49 721.48
  C 522.84 725.95 530.09 723.72 532.84 717.53
  C 534.50 713.77 533.76 706.72 533.67 701.97
  Q 534.04 701.34 533.68 700.53
  L 534.15 686.07
  A 5.29 5.19 -36.8 0 1 534.34 684.83
  Q 535.75 679.84 536.09 678.78
  C 540.49 665.01 553.43 653.03 567.50 651.20
  Q 570.95 650.75 582.27 650.75
  Q 594.28 651.50 606.15 650.42
  Q 611.91 649.98 622.00 650.00
  Q 622.79 650.00 622.87 648.97
  Q 623.20 648.37 622.81 647.70
  Q 622.27 630.44 622.24 623.75
  Q 621.92 544.88 621.87 542.25
  Q 621.70 533.78 624.17 525.63
  C 626.48 518.02 633.82 510.57 639.84 504.59
  Q 660.69 483.83 691.83 452.57
  C 695.95 448.44 696.89 442.84 696.74 436.38
  Q 696.44 422.90 696.48 416.50
  Q 696.58 401.15 707.08 389.75
  Q 720.11 375.61 739.48 376.00
  Q 760.09 376.43 778.78 376.38
  A 1.14 1.14 0.0 0 0 779.91 375.41
  C 782.28 360.82 793.13 347.84 806.06 341.43
  Q 818.97 335.03 833.63 336.94
  C 852.18 339.35 867.72 352.11 874.54 369.36
  Q 878.52 379.43 877.66 389.78
  Q 875.56 415.07 855.16 428.73
  C 838.49 439.89 816.16 439.62 799.64 428.10
  Q 787.19 419.42 781.83 404.19
  A 0.77 0.77 0.0 0 0 781.10 403.67
  Q 766.50 403.59 742.50 403.73
  C 739.09 403.75 735.44 403.77 732.41 405.17
  Q 725.46 408.38 722.88 414.84
  Q 721.33 418.70 721.77 426.30
  Q 721.87 428.10 721.93 442.21
  Q 721.97 449.49 720.91 453.02
  Q 719.04 459.24 716.36 462.87
  Q 714.37 465.57 708.61 471.37
  Q 672.75 507.45 652.75 527.49
  Q 649.17 531.07 647.32 537.30
  Q 646.53 539.96 646.44 548.76
  Q 646.30 561.10 646.38 586.77
  A 0.48 0.48 0.0 0 0 646.91 587.25
  Q 647.64 587.19 647.94 586.36
  Q 648.11 585.88 648.74 585.25
  Q 671.84 562.13 674.26 559.76
  Q 696.71 537.75 713.97 520.47
  C 719.14 515.29 724.82 511.69 732.25 511.12
  Q 737.60 510.70 768.37 510.84
  A 0.73 0.71 11.9 0 0 769.03 510.42
  C 770.00 508.30 770.63 505.88 771.74 503.52
  C 778.55 489.02 793.22 477.70 809.33 476.05
  Q 833.46 473.58 850.00 489.67
  Q 865.95 505.18 863.80 527.99
  Q 862.46 542.17 852.95 553.41
  C 842.65 565.58 828.23 572.22 812.30 571.33
  Q 801.51 570.74 792.21 565.38
  Q 775.81 555.95 769.76 536.93
  A 1.21 1.21 0.0 0 0 768.63 536.08
  Q 759.47 535.88 750.10 535.92
  C 742.18 535.95 738.77 535.66 733.41 537.99
  Q 731.52 538.81 728.14 542.19
  Q 675.90 594.31 662.97 607.22
  Q 657.10 613.07 648.47 621.26
  A 4.44 4.43 67.0 0 0 647.10 624.67
  L 649.06 667.57
  A 1.26 1.26 0.0 0 0 650.32 668.77
  L 694.19 668.77
  A 0.82 0.81 -84.9 0 0 694.99 668.09
  C 696.84 657.49 701.96 647.85 709.67 640.46
  Q 725.48 625.29 748.72 626.48
  Q 762.51 627.18 774.56 635.08
  C 799.24 651.25 805.02 685.64 789.03 709.79
  Q 777.76 726.82 756.57 732.34
  C 753.51 733.14 750.66 733.04 747.58 733.53
  Q 746.02 733.78 743.94 733.70
  Q 714.59 732.53 700.10 708.18
  C 697.83 704.36 696.10 698.56 694.85 694.39
  A 0.46 0.45 81.2 0 0 694.42 694.07
  L 649.79 694.07
  A 1.42 1.41 3.4 0 0 648.38 695.31
  L 647.71 700.86
  A 0.86 0.67 -38.0 0 1 647.65 701.10
  C 644.16 709.84 638.62 712.92 629.50 712.92
  Q 615.01 712.91 610.31 712.95
  A 0.54 0.53 87.5 0 0 609.78 713.54
  Q 612.25 739.60 612.91 746.23
  Q 614.01 757.36 607.54 765.74
  Q 598.76 777.12 584.01 777.11
  Q 531.90 777.11 389.56 777.13
  Q 379.84 777.13 375.64 775.68
  C 363.85 771.62 357.29 759.57 358.63 747.04
  Q 362.76 708.31 367.00 667.75
  Q 368.30 655.24 368.99 647.26
  A 0.47 0.47 0.0 0 0 368.50 646.75
  C 359.93 647.02 350.06 647.36 343.35 644.65
  Q 338.41 642.66 333.75 638.10
  Q 319.04 623.70 295.99 599.63
  Q 293.43 596.96 289.75 596.95
  Q 266.60 596.86 266.58 596.86
  A 1.09 1.07 7.2 0 0 265.53 597.66
  Q 264.12 602.95 260.93 607.64
  Q 249.71 624.17 230.71 626.82
  C 207.09 630.11 187.28 614.22 183.08 591.00
  Q 182.62 588.48 182.82 582.86
  C 183.36 567.15 193.33 553.27 206.60 546.36
  C 212.32 543.38 221.87 541.14 229.23 542.46
  C 232.28 543.01 234.41 542.96 237.25 543.92
  Q 257.22 550.72 265.35 571.54
  A 1.79 1.78 -9.9 0 0 266.99 572.68
  Q 270.21 572.72 292.01 572.64
  Q 303.22 572.60 311.28 580.72
  Q 345.11 614.79 347.76 617.23
  Q 350.31 619.56 353.18 620.63
  A 2.04 1.85 53.4 0 0 353.79 620.75
  L 371.86 621.37
  Z
  M 805.8934 384.6004
  A 21.91 21.68 -175.0 0 0 825.8305 408.1075
  A 21.91 21.68 -175.0 0 0 849.5466 388.4196
  A 21.91 21.68 -175.0 0 0 829.6095 364.9125
  A 21.91 21.68 -175.0 0 0 805.8934 384.6004
  Z
  M 794.5632 518.5751
  A 21.30 20.84 -167.9 0 0 811.0215 543.4170
  A 21.30 20.84 -167.9 0 0 836.2168 527.5049
  A 21.30 20.84 -167.9 0 0 819.7585 502.6630
  A 21.30 20.84 -167.9 0 0 794.5632 518.5751
  Z
  M 206.8842 583.5568
  A 18.02 17.72 -174.8 0 0 223.2240 602.8371
  A 18.02 17.72 -174.8 0 0 242.7758 586.8232
  A 18.02 17.72 -174.8 0 0 226.4360 567.5429
  A 18.02 17.72 -174.8 0 0 206.8842 583.5568
  Z
  M 745.2790 655.1203
  A 25.02 24.69 -90.3 0 0 720.7203 680.2693
  A 25.02 24.69 -90.3 0 0 745.5410 705.1597
  A 25.02 24.69 -90.3 0 0 770.0997 680.0107
  A 25.02 24.69 -90.3 0 0 745.2790 655.1203
  Z
  M 648.13 681.74
  C 648.02 674.78 640.76 674.85 635.78 674.88
  Q 598.34 675.12 583.81 675.13
  C 573.24 675.14 562.32 677.85 559.59 689.61
  C 557.38 699.12 558.08 708.58 558.16 724.76
  C 558.19 731.57 558.60 737.94 566.37 739.85
  Q 569.61 740.65 573.33 738.37
  C 576.39 736.49 577.44 732.93 577.33 729.50
  Q 576.92 716.68 576.08 703.73
  Q 575.41 693.43 582.80 689.58
  Q 586.31 687.74 596.91 687.97
  Q 602.53 688.08 638.63 688.01
  Q 642.57 688.00 644.15 687.05
  Q 646.77 685.45 647.91 682.82
  A 2.60 2.51 -34.5 0 0 648.13 681.74
  Z"
/>
<path fill="#202e32" d="
  M 622.87 648.97
  L 622.81 647.70
  Q 623.20 648.37 622.87 648.97
  Z"
/>
<path fill="#202e32" d="
  M 533.68 700.53
  Q 534.04 701.34 533.67 701.97
  L 533.68 700.53
  Z"
/>
</svg>
